<svg xmlns="http://www.w3.org/2000/svg" viewBox="0 0 260.69 104.3"><defs><style>.cls-1{fill:#21211f;}</style></defs><g id="Capa_1" data-name="Capa 1"><path class="cls-1" d="M84.11,172A33.72,33.72,0,0,1,69,168.67a24.67,24.67,0,0,1-10.46-9.56,27.2,27.2,0,0,1-3.68-14.17V101.86a3.9,3.9,0,0,1,4-4H74.26a3.9,3.9,0,0,1,4,4v43.08a6.32,6.32,0,0,0,1.58,4.62,5.54,5.54,0,0,0,4.25,1.6,5.29,5.29,0,0,0,4.13-1.63,6.34,6.34,0,0,0,1.6-4.59V101.86a3.9,3.9,0,0,1,4-4h15.4a3.9,3.9,0,0,1,4,4v43.08a27.23,27.23,0,0,1-3.68,14.17,24.75,24.75,0,0,1-10.4,9.56A33.48,33.48,0,0,1,84.11,172Z" transform="translate(-19.66 -97.85)"/><path class="cls-1" d="M69.09,168.71A23.69,23.69,0,0,1,59,159.5a26.48,26.48,0,0,1-3.56-13.82V99.42A1.45,1.45,0,0,1,57,97.85H73.54a1.45,1.45,0,0,1,1.57,1.57v46.26a9.48,9.48,0,0,0,2.46,6.86,8.64,8.64,0,0,0,6.54,2.56,8.45,8.45,0,0,0,6.44-2.61A9.54,9.54,0,0,0,93,145.68V99.42a1.55,1.55,0,0,1,.42-1.15,1.53,1.53,0,0,1,1.15-.42h16.54a1.56,1.56,0,0,1,1.15.42,1.59,1.59,0,0,1,.42,1.15v46.26a26.48,26.48,0,0,1-3.56,13.82,23.85,23.85,0,0,1-10,9.21,33.11,33.11,0,0,1-15,3.25A33.42,33.42,0,0,1,69.09,168.71Z" transform="translate(-19.66 -97.85)"/><path class="cls-1" d="M200.77,199.47l-32-54.83a1,1,0,0,1,0-1l31-43.06a2.61,2.61,0,0,0,.44-1.34c0-.89-.59-1.34-1.78-1.34H171.72a3.15,3.15,0,0,0-2.83,1.34L143,136q-.3.45-.6.3a.61.61,0,0,1-.29-.59V100.09a2.07,2.07,0,0,0-2.24-2.24H121.56a1.36,1.36,0,0,0-1.36,1.36v45.84a37.36,37.36,0,0,1-5.06,19.57c-.35.58-.71,1.14-1.09,1.69v33.6a2.07,2.07,0,0,0,2.24,2.24h23.54a2.07,2.07,0,0,0,2.24-2.24V174.44a2.42,2.42,0,0,1,.29-.9l6.26-9.53q.3-.45.6-.45c.2,0,.35.15.44.45l20.57,36.65a2.73,2.73,0,0,0,2.68,1.49h26.37c1.29,0,1.94-.45,1.94-1.34A2.15,2.15,0,0,0,200.77,199.47Z" transform="translate(-19.66 -97.85)"/><path class="cls-1" d="M280.19,199.62l-31.43-100a2.45,2.45,0,0,0-2.54-1.79H214.64a2.44,2.44,0,0,0-2.54,1.79l-20.95,66.63a5,5,0,0,0,.57,4c5.23,9.24,10.37,17.54,16,28.33,1,1.67,1.66,1.81,2.3.58l3.85-10.6q.3-.6.75-.6h31.58q.45,0,.75.6l3.28,11.62a2.32,2.32,0,0,0,2.53,1.94h25.48c1.39,0,2.08-.55,2.08-1.64A2,2,0,0,0,280.19,199.62Zm-40.52-33.08H221c-.49,0-.69-.3-.59-.9l9.38-33.37q.15-.45.45-.45t.45.45l9.53,33.37C240.46,166.24,240.26,166.54,239.67,166.54Z" transform="translate(-19.66 -97.85)"/><path class="cls-1" d="M20.25,201.55a2.19,2.19,0,0,1-.59-1.64V100.09a2.06,2.06,0,0,1,2.23-2.24H45.43a2.07,2.07,0,0,1,2.24,2.24v77.33a.65.65,0,0,0,.74.74h46a2.07,2.07,0,0,1,2.24,2.24v19.51a2.07,2.07,0,0,1-2.24,2.24H21.89A2.22,2.22,0,0,1,20.25,201.55Z" transform="translate(-19.66 -97.85)"/></g></svg>