<?xml version="1.0" encoding="utf-8"?>
<!-- Generator: Adobe Illustrator 25.4.1, SVG Export Plug-In . SVG Version: 6.00 Build 0)  -->
<svg version="1.1" id="Capa_1" xmlns="http://www.w3.org/2000/svg" xmlns:xlink="http://www.w3.org/1999/xlink" x="0px" y="0px"
	 viewBox="0 0 229 150" style="enable-background:new 0 0 229 150;" xml:space="preserve">
<style type="text/css">
	.st0{fill:#CDFD5F;}
	.st1{fill:#8B7FFF;}
	.st2{fill:#B87DEC;}
	.st3{fill:#FFFFFF;}
</style>
<g>
	<path class="st0" d="M147.99,134.21H87.83c-19.03,0-34.46-15.43-34.46-34.46V50.19c0-19.03,15.43-34.46,34.46-34.46h60.17
		c19.03,0,34.46,15.43,34.46,34.46v49.57C182.45,118.78,167.03,134.21,147.99,134.21z"/>
	<path class="st1" d="M185.07,143.74H148.2c-19.03,0-34.46-15.43-34.46-34.46V59.64c0-19.03,15.43-34.46,34.46-34.46h36.87
		c19.03,0,34.46,15.43,34.46,34.46v49.64C219.53,128.31,204.1,143.74,185.07,143.74z"/>
	<path class="st2" d="M88.24,123.74H43.93c-19.03,0-34.46-15.43-34.46-34.46V40.72c0-19.03,15.43-34.46,34.46-34.46h44.32
		c19.03,0,34.46,15.43,34.46,34.46v48.56C122.71,108.31,107.28,123.74,88.24,123.74z"/>
	<g>
		<path class="st3" d="M76.28,86.97c-3.55,0-6.75-0.7-9.51-2.07c-2.82-1.4-5.04-3.42-6.58-6.01c-1.53-2.57-2.31-5.57-2.31-8.91
			v-27.1c0-0.9,0.39-1.48,0.71-1.81c0.33-0.33,0.91-0.72,1.81-0.72h9.69c0.9,0,1.48,0.39,1.81,0.71c0.33,0.33,0.72,0.91,0.72,1.81
			v27.1c0,1.26,0.33,2.21,0.99,2.91c0.65,0.68,1.53,1.01,2.67,1.01c1.12,0,1.94-0.33,2.6-1.03c0.68-0.72,1.01-1.66,1.01-2.89v-27.1
			c0-0.9,0.39-1.48,0.71-1.81c0.33-0.33,0.91-0.72,1.81-0.72h9.69c0.9,0,1.48,0.39,1.81,0.71c0.33,0.33,0.72,0.91,0.72,1.81v27.1
			c0,3.34-0.78,6.34-2.31,8.91c-1.54,2.59-3.75,4.61-6.55,6.01C83.02,86.27,79.83,86.97,76.28,86.97z"/>
		<path class="st3" d="M66.84,84.93c-2.74-1.36-4.86-3.29-6.35-5.79c-1.49-2.5-2.24-5.4-2.24-8.69v-29.1c0-0.31,0.09-0.55,0.26-0.72
			c0.17-0.17,0.42-0.26,0.72-0.26h10.4c0.31,0,0.55,0.09,0.72,0.26c0.17,0.18,0.26,0.42,0.26,0.72v29.1c0,1.8,0.52,3.24,1.55,4.31
			c1.03,1.08,2.4,1.61,4.11,1.61c1.67,0,3.02-0.55,4.05-1.65c1.03-1.1,1.55-2.52,1.55-4.28v-29.1c0-0.31,0.09-0.55,0.26-0.72
			c0.17-0.17,0.42-0.26,0.72-0.26h10.4c0.31,0,0.55,0.09,0.72,0.26c0.17,0.18,0.26,0.42,0.26,0.72v29.1c0,3.29-0.75,6.19-2.24,8.69
			c-1.49,2.5-3.6,4.43-6.32,5.79c-2.72,1.36-5.86,2.04-9.41,2.04S69.58,86.29,66.84,84.93z"/>
		<path class="st3" d="M149.66,104.27l-20.15-34.49c-0.12-0.25-0.12-0.47,0-0.66l19.49-27.08c0.19-0.31,0.28-0.59,0.28-0.84
			c0-0.56-0.37-0.84-1.12-0.84h-16.78c-0.81,0-1.41,0.28-1.78,0.84L113.3,64.35c-0.12,0.19-0.25,0.25-0.37,0.19
			c-0.12-0.06-0.19-0.19-0.19-0.37v-22.4c0-0.44-0.12-0.78-0.37-1.03c-0.25-0.25-0.59-0.37-1.03-0.37H99.84
			c-0.47,0-0.86,0.38-0.86,0.86v28.83c0,4.69-1.06,8.75-3.19,12.31c-0.22,0.37-0.45,0.72-0.68,1.06v21.14
			c0,0.44,0.12,0.78,0.37,1.03c0.25,0.25,0.59,0.37,1.03,0.37h14.81c0.44,0,0.78-0.12,1.03-0.37c0.25-0.25,0.37-0.59,0.37-1.03
			V88.53c0-0.12,0.06-0.31,0.19-0.56l3.94-6c0.12-0.19,0.25-0.28,0.37-0.28c0.12,0,0.22,0.09,0.28,0.28l12.93,23.05
			c0.31,0.62,0.87,0.94,1.69,0.94h16.59c0.81,0,1.22-0.28,1.22-0.84C149.94,104.8,149.85,104.52,149.66,104.27z"/>
		<path class="st3" d="M199.62,104.37l-19.77-62.88c-0.25-0.75-0.78-1.12-1.59-1.12h-19.87c-0.81,0-1.34,0.37-1.59,1.12
			l-13.18,41.91c-0.27,0.85-0.08,1.75,0.36,2.52c3.29,5.81,6.53,11.03,10.08,17.82c0.64,1.05,1.04,1.14,1.44,0.36l2.42-6.67
			c0.13-0.25,0.28-0.37,0.47-0.37h19.87c0.19,0,0.34,0.13,0.47,0.37l2.06,7.31c0.19,0.81,0.72,1.22,1.59,1.22h16.03
			c0.87,0,1.31-0.34,1.31-1.03C199.71,104.68,199.68,104.49,199.62,104.37z M174.13,83.56h-11.71c-0.31,0-0.44-0.19-0.38-0.56
			l5.9-20.99c0.06-0.19,0.15-0.28,0.28-0.28c0.12,0,0.22,0.09,0.28,0.28l6,20.99C174.63,83.37,174.5,83.56,174.13,83.56z"/>
		<path class="st3" d="M36.12,105.59c-0.25-0.25-0.37-0.59-0.37-1.03V41.76c0-0.44,0.12-0.78,0.37-1.03
			c0.25-0.25,0.59-0.37,1.03-0.37h14.81c0.44,0,0.78,0.13,1.03,0.37c0.25,0.25,0.38,0.59,0.38,1.03V90.4c0,0.31,0.16,0.47,0.47,0.47
			h28.96c0.44,0,0.78,0.13,1.03,0.37c0.25,0.25,0.37,0.59,0.37,1.03v12.28c0,0.44-0.13,0.78-0.37,1.03
			c-0.25,0.25-0.59,0.37-1.03,0.37H37.15C36.71,105.96,36.37,105.84,36.12,105.59z"/>
	</g>
</g>
</svg>
