<svg xmlns="http://www.w3.org/2000/svg" viewBox="0 0 248.85 127.48"><defs><style>.cls-1{fill:#fff;}</style></defs><g id="Capa_1" data-name="Capa 1"><path class="cls-1" d="M274.25,210.64,235.82,88.45a3,3,0,0,0-3.1-2.19h-38.6a3,3,0,0,0-3.1,2.19l-25.61,81.44a5.82,5.82,0,0,0,.69,4.9c7.47,11.55,11.85,22.68,19.59,34.63,1.26,2,2,2.21,2.81.7l4.71-13c.24-.49.54-.73.91-.73h38.6c.37,0,.67.24.91.73l4,14.2a2.85,2.85,0,0,0,3.1,2.37h31.14c1.7,0,2.55-.67,2.55-2A2.61,2.61,0,0,0,274.25,210.64Zm-49.54-40.43H202c-.61,0-.85-.36-.73-1.09l11.47-40.79c.12-.37.3-.55.55-.55s.42.18.54.55l11.66,40.79C225.68,169.85,225.44,170.21,224.71,170.21Z" transform="translate(-25.57 -86.26)"/><path class="cls-1" d="M178,210.46l-39.15-67a1.16,1.16,0,0,1,0-1.27l37.88-52.63a3.29,3.29,0,0,0,.54-1.64c0-1.09-.72-1.64-2.18-1.64H142.5A3.86,3.86,0,0,0,139,87.9l-31.69,45c-.24.37-.48.49-.72.37a.73.73,0,0,1-.37-.73V89a2.52,2.52,0,0,0-2.73-2.73H74.76A2.51,2.51,0,0,0,72,89v88.27h35.59l6.65-10.14c.25-.37.49-.55.73-.55s.43.18.55.55l25.13,44.8a3.35,3.35,0,0,0,3.28,1.82h32.23c1.58,0,2.37-.55,2.37-1.64A2.64,2.64,0,0,0,178,210.46Z" transform="translate(-25.57 -86.26)"/><path class="cls-1" d="M26.3,213a2.67,2.67,0,0,1-.73-2V89a2.52,2.52,0,0,1,2.73-2.73H57.08A2.52,2.52,0,0,1,59.81,89v94.52a.8.8,0,0,0,.91.91H117a2.51,2.51,0,0,1,2.73,2.73V211a2.51,2.51,0,0,1-2.73,2.73H28.3A2.67,2.67,0,0,1,26.3,213Z" transform="translate(-25.57 -86.26)"/></g></svg>