<svg id="Capa_1" data-name="Capa 1" xmlns="http://www.w3.org/2000/svg" viewBox="0 0 250.55 163.98"><defs><style>.cls-1{fill:#ccd854;}.cls-2{fill:#797ab9;}.cls-3{fill:#9d7fb9;}.cls-4{fill:#fff;}</style></defs><rect class="cls-1" x="52.36" y="11.29" width="153.97" height="141.32" rx="41.1"/><rect class="cls-2" x="124.37" y="22.57" width="126.18" height="141.42" rx="41.1"/><rect class="cls-3" width="135.06" height="140.13" rx="41.1"/><path class="cls-4" d="M104.42,164.28a25.21,25.21,0,0,1-11.34-2.47,18.5,18.5,0,0,1-7.85-7.17A20.41,20.41,0,0,1,82.47,144V111.69a2.92,2.92,0,0,1,3-3H97a3,3,0,0,1,2.16.85,3,3,0,0,1,.85,2.16V144a4.78,4.78,0,0,0,1.19,3.47,4.21,4.21,0,0,0,3.19,1.2,4,4,0,0,0,3.1-1.23,4.76,4.76,0,0,0,1.2-3.44V111.69a2.92,2.92,0,0,1,3-3h11.55a3,3,0,0,1,2.16.85,3,3,0,0,1,.85,2.16V144a20.43,20.43,0,0,1-2.75,10.63,18.57,18.57,0,0,1-7.81,7.17A25,25,0,0,1,104.42,164.28Z" transform="translate(-24.73 -68.01)"/><path class="cls-4" d="M93.15,161.84a17.74,17.74,0,0,1-7.57-6.91,19.83,19.83,0,0,1-2.67-10.36V109.86a1.15,1.15,0,0,1,.31-.86,1.17,1.17,0,0,1,.86-.32H96.49a1.09,1.09,0,0,1,1.18,1.18v34.71a7.11,7.11,0,0,0,1.84,5.14,6.5,6.5,0,0,0,4.91,1.92,6.32,6.32,0,0,0,4.83-2,7.15,7.15,0,0,0,1.85-5.1V109.86a1.15,1.15,0,0,1,.31-.86,1.17,1.17,0,0,1,.86-.32h12.41a1.1,1.1,0,0,1,1.18,1.18v34.71a19.83,19.83,0,0,1-2.67,10.36,17.78,17.78,0,0,1-7.54,6.91,24.71,24.71,0,0,1-11.23,2.44A25,25,0,0,1,93.15,161.84Z" transform="translate(-24.73 -68.01)"/><path class="cls-4" d="M191.94,184.92l-24-41.14a.73.73,0,0,1,0-.78l23.25-32.31a2,2,0,0,0,.33-1c0-.67-.44-1-1.34-1h-20a2.38,2.38,0,0,0-2.12,1L148.57,137.3c-.15.22-.3.3-.45.22a.44.44,0,0,1-.22-.45V110.36a1.56,1.56,0,0,0-1.68-1.68h-13.7a1,1,0,0,0-1,1v34.38a28,28,0,0,1-3.8,14.68c-.26.44-.53.86-.81,1.27v25.21a1.54,1.54,0,0,0,1.67,1.68h17.66a1.56,1.56,0,0,0,1.68-1.68V166.14a1.64,1.64,0,0,1,.22-.67l4.7-7.16q.23-.33.45-.33c.14,0,.26.11.33.33L169,185.81a2.05,2.05,0,0,0,2,1.12h19.78c1,0,1.46-.34,1.46-1A1.63,1.63,0,0,0,191.94,184.92Z" transform="translate(-24.73 -68.01)"/><path class="cls-4" d="M251.53,185l-23.59-75a1.83,1.83,0,0,0-1.9-1.34h-23.7a1.83,1.83,0,0,0-1.9,1.34l-15.72,50a3.76,3.76,0,0,0,.43,3c3.92,6.93,7.78,13.16,12,21.25.77,1.26,1.24,1.36,1.72.44l2.89-8c.15-.3.34-.45.56-.45H226c.22,0,.41.15.56.45l2.46,8.71a1.74,1.74,0,0,0,1.9,1.46h19.11c1.05,0,1.57-.41,1.57-1.23A1.63,1.63,0,0,0,251.53,185Zm-30.41-24.82h-14c-.37,0-.52-.22-.45-.67l7-25c.08-.22.19-.33.34-.33s.26.11.34.33l7.15,25C221.72,160,221.57,160.21,221.12,160.21Z" transform="translate(-24.73 -68.01)"/><path class="cls-4" d="M56.51,186.48a1.7,1.7,0,0,1-.44-1.23V110.36a1.7,1.7,0,0,1,.44-1.23,1.66,1.66,0,0,1,1.23-.45H75.4a1.56,1.56,0,0,1,1.68,1.68v58a.49.49,0,0,0,.56.56h34.54a1.56,1.56,0,0,1,1.68,1.68v14.64a1.56,1.56,0,0,1-1.68,1.68H57.74A1.66,1.66,0,0,1,56.51,186.48Z" transform="translate(-24.73 -68.01)"/></svg>