<svg id="Capa_1" data-name="Capa 1" xmlns="http://www.w3.org/2000/svg" viewBox="0 0 246.83 126.44"><defs><style>.cls-1{fill:#21211f;}</style></defs><path class="cls-1" d="M273.23,210.15,235.12,89a3,3,0,0,0-3.07-2.17H193.76A2.94,2.94,0,0,0,190.69,89l-25.4,80.78a5.76,5.76,0,0,0,.68,4.86c7.4,11.45,11.75,22.49,19.43,34.34,1.24,2,2,2.2,2.78.7l4.67-12.85c.24-.48.55-.72.91-.72h38.29q.54,0,.9.72l4,14.09a2.81,2.81,0,0,0,3.07,2.35h30.89c1.68,0,2.52-.66,2.52-2A2.51,2.51,0,0,0,273.23,210.15Zm-49.13-40.1H201.52q-.9,0-.72-1.08l11.38-40.46c.12-.37.3-.55.54-.55s.42.18.54.55L224.82,169Q225.18,170.05,224.1,170.05Z" transform="translate(-26.59 -86.78)"/><path class="cls-1" d="M177.78,210,139,143.5a1.21,1.21,0,0,1,0-1.27L176.52,90a3.23,3.23,0,0,0,.54-1.62c0-1.09-.72-1.63-2.17-1.63H142.56a3.82,3.82,0,0,0-3.43,1.63L107.7,133q-.36.54-.72.36a.73.73,0,0,1-.36-.72V89.49a2.49,2.49,0,0,0-2.71-2.71H75.37a2.49,2.49,0,0,0-2.71,2.71V177H108l6.6-10.05q.36-.54.72-.54t.54.54l24.93,44.43a3.3,3.3,0,0,0,3.25,1.81h32c1.56,0,2.35-.54,2.35-1.63A2.58,2.58,0,0,0,177.78,210Z" transform="translate(-26.59 -86.78)"/><path class="cls-1" d="M27.31,212.5a2.7,2.7,0,0,1-.72-2v-121a2.72,2.72,0,0,1,.72-2,2.68,2.68,0,0,1,2-.72H57.83a2.68,2.68,0,0,1,2,.72,2.72,2.72,0,0,1,.72,2v93.75a.8.8,0,0,0,.91.9h55.81a2.49,2.49,0,0,1,2.71,2.71v23.66a2.49,2.49,0,0,1-2.71,2.71h-88A2.68,2.68,0,0,1,27.31,212.5Z" transform="translate(-26.59 -86.78)"/></svg>